<mxfile host="app.diagrams.net" modified="2023-09-05T03:37:42.454Z" agent="Mozilla/5.0 (Windows NT 10.0; Win64; x64) AppleWebKit/537.36 (KHTML, like Gecko) Chrome/116.0.0.0 Safari/537.36" etag="kF006u9B8O8i5JFH8ATr" version="21.7.2" type="github">
  <diagram name="第 1 页" id="KGWar2KIulV7T_1w6ft4">
    <mxGraphModel dx="1434" dy="788" grid="1" gridSize="10" guides="1" tooltips="1" connect="1" arrows="1" fold="1" page="1" pageScale="1" pageWidth="827" pageHeight="1169" math="0" shadow="0">
      <root>
        <mxCell id="0" />
        <mxCell id="1" parent="0" />
        <mxCell id="37M0eXva6EufgzzpLfaK-27" style="edgeStyle=orthogonalEdgeStyle;rounded=0;orthogonalLoop=1;jettySize=auto;html=1;exitX=1;exitY=0.5;exitDx=0;exitDy=0;" edge="1" parent="1" source="37M0eXva6EufgzzpLfaK-1" target="37M0eXva6EufgzzpLfaK-26">
          <mxGeometry relative="1" as="geometry" />
        </mxCell>
        <mxCell id="37M0eXva6EufgzzpLfaK-30" style="edgeStyle=orthogonalEdgeStyle;rounded=0;orthogonalLoop=1;jettySize=auto;html=1;exitX=0.5;exitY=1;exitDx=0;exitDy=0;entryX=0.5;entryY=0;entryDx=0;entryDy=0;shape=flexArrow;" edge="1" parent="1" source="37M0eXva6EufgzzpLfaK-1">
          <mxGeometry relative="1" as="geometry">
            <mxPoint x="300" y="240" as="targetPoint" />
          </mxGeometry>
        </mxCell>
        <mxCell id="37M0eXva6EufgzzpLfaK-1" value="执行CR&lt;br&gt;同步应用业务编码" style="rounded=0;whiteSpace=wrap;html=1;" vertex="1" parent="1">
          <mxGeometry x="240" y="120" width="120" height="60" as="geometry" />
        </mxCell>
        <mxCell id="37M0eXva6EufgzzpLfaK-38" style="edgeStyle=orthogonalEdgeStyle;rounded=0;orthogonalLoop=1;jettySize=auto;html=1;exitX=0.5;exitY=1;exitDx=0;exitDy=0;endArrow=none;endFill=0;" edge="1" parent="1" source="37M0eXva6EufgzzpLfaK-3" target="37M0eXva6EufgzzpLfaK-4">
          <mxGeometry relative="1" as="geometry" />
        </mxCell>
        <mxCell id="37M0eXva6EufgzzpLfaK-54" style="edgeStyle=orthogonalEdgeStyle;rounded=0;orthogonalLoop=1;jettySize=auto;html=1;exitX=1;exitY=0.5;exitDx=0;exitDy=0;entryX=0;entryY=0.5;entryDx=0;entryDy=0;shape=flexArrow;" edge="1" parent="1" source="37M0eXva6EufgzzpLfaK-3" target="37M0eXva6EufgzzpLfaK-51">
          <mxGeometry relative="1" as="geometry" />
        </mxCell>
        <mxCell id="37M0eXva6EufgzzpLfaK-3" value="发起流程" style="rounded=0;whiteSpace=wrap;html=1;" vertex="1" parent="1">
          <mxGeometry x="240" y="600" width="120" height="60" as="geometry" />
        </mxCell>
        <mxCell id="37M0eXva6EufgzzpLfaK-63" style="edgeStyle=orthogonalEdgeStyle;rounded=0;orthogonalLoop=1;jettySize=auto;html=1;exitX=0.5;exitY=1;exitDx=0;exitDy=0;entryX=0.5;entryY=0;entryDx=0;entryDy=0;endArrow=none;endFill=0;" edge="1" parent="1" source="37M0eXva6EufgzzpLfaK-4" target="37M0eXva6EufgzzpLfaK-60">
          <mxGeometry relative="1" as="geometry" />
        </mxCell>
        <mxCell id="37M0eXva6EufgzzpLfaK-4" value="处理流程节点&lt;br&gt;执行结果" style="rounded=0;whiteSpace=wrap;html=1;" vertex="1" parent="1">
          <mxGeometry x="240" y="720" width="120" height="60" as="geometry" />
        </mxCell>
        <mxCell id="37M0eXva6EufgzzpLfaK-28" style="edgeStyle=orthogonalEdgeStyle;rounded=0;orthogonalLoop=1;jettySize=auto;html=1;exitX=0.5;exitY=1;exitDx=0;exitDy=0;entryX=0.5;entryY=0;entryDx=0;entryDy=0;shape=flexArrow;" edge="1" parent="1" source="37M0eXva6EufgzzpLfaK-24" target="37M0eXva6EufgzzpLfaK-1">
          <mxGeometry relative="1" as="geometry" />
        </mxCell>
        <mxCell id="37M0eXva6EufgzzpLfaK-24" value="业务侧" style="rounded=0;whiteSpace=wrap;html=1;fontStyle=1;fontSize=16;" vertex="1" parent="1">
          <mxGeometry x="240" y="40" width="120" height="40" as="geometry" />
        </mxCell>
        <mxCell id="37M0eXva6EufgzzpLfaK-46" style="edgeStyle=orthogonalEdgeStyle;rounded=0;orthogonalLoop=1;jettySize=auto;html=1;exitX=0.5;exitY=1;exitDx=0;exitDy=0;" edge="1" parent="1" source="37M0eXva6EufgzzpLfaK-25" target="37M0eXva6EufgzzpLfaK-26">
          <mxGeometry relative="1" as="geometry" />
        </mxCell>
        <mxCell id="37M0eXva6EufgzzpLfaK-25" value="流程系统" style="rounded=0;whiteSpace=wrap;html=1;fontStyle=1;fontSize=16;" vertex="1" parent="1">
          <mxGeometry x="520" y="40" width="120" height="40" as="geometry" />
        </mxCell>
        <mxCell id="37M0eXva6EufgzzpLfaK-48" style="edgeStyle=orthogonalEdgeStyle;rounded=0;orthogonalLoop=1;jettySize=auto;html=1;exitX=0.5;exitY=1;exitDx=0;exitDy=0;entryX=0.5;entryY=0;entryDx=0;entryDy=0;endArrow=none;endFill=0;" edge="1" parent="1" source="37M0eXva6EufgzzpLfaK-26" target="37M0eXva6EufgzzpLfaK-40">
          <mxGeometry relative="1" as="geometry" />
        </mxCell>
        <mxCell id="37M0eXva6EufgzzpLfaK-26" value="CR数据同步" style="rounded=0;whiteSpace=wrap;html=1;" vertex="1" parent="1">
          <mxGeometry x="520" y="120" width="120" height="60" as="geometry" />
        </mxCell>
        <mxCell id="37M0eXva6EufgzzpLfaK-36" style="edgeStyle=orthogonalEdgeStyle;rounded=0;orthogonalLoop=1;jettySize=auto;html=1;exitX=0.5;exitY=1;exitDx=0;exitDy=0;entryX=0.5;entryY=0;entryDx=0;entryDy=0;shape=flexArrow;" edge="1" parent="1" source="37M0eXva6EufgzzpLfaK-32" target="37M0eXva6EufgzzpLfaK-33">
          <mxGeometry relative="1" as="geometry" />
        </mxCell>
        <mxCell id="37M0eXva6EufgzzpLfaK-42" style="edgeStyle=orthogonalEdgeStyle;rounded=0;orthogonalLoop=1;jettySize=auto;html=1;exitX=1;exitY=0.5;exitDx=0;exitDy=0;entryX=0;entryY=0.5;entryDx=0;entryDy=0;" edge="1" parent="1" source="37M0eXva6EufgzzpLfaK-32" target="37M0eXva6EufgzzpLfaK-40">
          <mxGeometry relative="1" as="geometry" />
        </mxCell>
        <mxCell id="37M0eXva6EufgzzpLfaK-32" value="创建流程模板&lt;br&gt;（web页面操作）" style="rounded=0;whiteSpace=wrap;html=1;" vertex="1" parent="1">
          <mxGeometry x="240" y="240" width="120" height="60" as="geometry" />
        </mxCell>
        <mxCell id="37M0eXva6EufgzzpLfaK-37" style="edgeStyle=orthogonalEdgeStyle;rounded=0;orthogonalLoop=1;jettySize=auto;html=1;exitX=0.5;exitY=1;exitDx=0;exitDy=0;shape=flexArrow;" edge="1" parent="1" source="37M0eXva6EufgzzpLfaK-33" target="37M0eXva6EufgzzpLfaK-34">
          <mxGeometry relative="1" as="geometry" />
        </mxCell>
        <mxCell id="37M0eXva6EufgzzpLfaK-43" style="edgeStyle=orthogonalEdgeStyle;rounded=0;orthogonalLoop=1;jettySize=auto;html=1;exitX=1;exitY=0.5;exitDx=0;exitDy=0;" edge="1" parent="1" source="37M0eXva6EufgzzpLfaK-33" target="37M0eXva6EufgzzpLfaK-41">
          <mxGeometry relative="1" as="geometry" />
        </mxCell>
        <mxCell id="37M0eXva6EufgzzpLfaK-33" value="关联流程模板&lt;br&gt;（web页面操作）" style="rounded=0;whiteSpace=wrap;html=1;" vertex="1" parent="1">
          <mxGeometry x="240" y="360" width="120" height="60" as="geometry" />
        </mxCell>
        <mxCell id="37M0eXva6EufgzzpLfaK-35" style="edgeStyle=orthogonalEdgeStyle;rounded=0;orthogonalLoop=1;jettySize=auto;html=1;exitX=0.5;exitY=1;exitDx=0;exitDy=0;entryX=0.5;entryY=0;entryDx=0;entryDy=0;" edge="1" parent="1" source="37M0eXva6EufgzzpLfaK-34" target="37M0eXva6EufgzzpLfaK-3">
          <mxGeometry relative="1" as="geometry" />
        </mxCell>
        <mxCell id="37M0eXva6EufgzzpLfaK-55" style="edgeStyle=orthogonalEdgeStyle;rounded=0;orthogonalLoop=1;jettySize=auto;html=1;exitX=1;exitY=0.5;exitDx=0;exitDy=0;entryX=0;entryY=0.5;entryDx=0;entryDy=0;" edge="1" parent="1" source="37M0eXva6EufgzzpLfaK-34" target="37M0eXva6EufgzzpLfaK-50">
          <mxGeometry relative="1" as="geometry" />
        </mxCell>
        <mxCell id="37M0eXva6EufgzzpLfaK-64" value="" style="edgeStyle=orthogonalEdgeStyle;rounded=0;orthogonalLoop=1;jettySize=auto;html=1;shape=flexArrow;" edge="1" parent="1" source="37M0eXva6EufgzzpLfaK-34" target="37M0eXva6EufgzzpLfaK-3">
          <mxGeometry relative="1" as="geometry" />
        </mxCell>
        <mxCell id="37M0eXva6EufgzzpLfaK-34" value="查询流程关联信息" style="rounded=0;whiteSpace=wrap;html=1;" vertex="1" parent="1">
          <mxGeometry x="240" y="480" width="120" height="60" as="geometry" />
        </mxCell>
        <mxCell id="37M0eXva6EufgzzpLfaK-49" style="edgeStyle=orthogonalEdgeStyle;rounded=0;orthogonalLoop=1;jettySize=auto;html=1;exitX=0.5;exitY=1;exitDx=0;exitDy=0;entryX=0.5;entryY=0;entryDx=0;entryDy=0;endArrow=none;endFill=0;" edge="1" parent="1" source="37M0eXva6EufgzzpLfaK-40" target="37M0eXva6EufgzzpLfaK-41">
          <mxGeometry relative="1" as="geometry" />
        </mxCell>
        <mxCell id="37M0eXva6EufgzzpLfaK-40" value="保存模板数据" style="rounded=0;whiteSpace=wrap;html=1;" vertex="1" parent="1">
          <mxGeometry x="520" y="240" width="120" height="60" as="geometry" />
        </mxCell>
        <mxCell id="37M0eXva6EufgzzpLfaK-56" style="edgeStyle=orthogonalEdgeStyle;rounded=0;orthogonalLoop=1;jettySize=auto;html=1;exitX=0.5;exitY=1;exitDx=0;exitDy=0;entryX=0.5;entryY=0;entryDx=0;entryDy=0;endArrow=none;endFill=0;" edge="1" parent="1" source="37M0eXva6EufgzzpLfaK-41" target="37M0eXva6EufgzzpLfaK-50">
          <mxGeometry relative="1" as="geometry" />
        </mxCell>
        <mxCell id="37M0eXva6EufgzzpLfaK-41" value="保存模板与应用业务编码关联关系" style="rounded=0;whiteSpace=wrap;html=1;" vertex="1" parent="1">
          <mxGeometry x="520" y="360" width="120" height="60" as="geometry" />
        </mxCell>
        <mxCell id="37M0eXva6EufgzzpLfaK-57" style="edgeStyle=orthogonalEdgeStyle;rounded=0;orthogonalLoop=1;jettySize=auto;html=1;exitX=0.5;exitY=1;exitDx=0;exitDy=0;endArrow=none;endFill=0;" edge="1" parent="1" source="37M0eXva6EufgzzpLfaK-50" target="37M0eXva6EufgzzpLfaK-51">
          <mxGeometry relative="1" as="geometry" />
        </mxCell>
        <mxCell id="37M0eXva6EufgzzpLfaK-50" value="通过应用业务编码查询对应的流程模板" style="rounded=0;whiteSpace=wrap;html=1;" vertex="1" parent="1">
          <mxGeometry x="520" y="480" width="120" height="60" as="geometry" />
        </mxCell>
        <mxCell id="37M0eXva6EufgzzpLfaK-58" style="edgeStyle=orthogonalEdgeStyle;rounded=0;orthogonalLoop=1;jettySize=auto;html=1;exitX=0.5;exitY=1;exitDx=0;exitDy=0;shape=flexArrow;" edge="1" parent="1" source="37M0eXva6EufgzzpLfaK-51" target="37M0eXva6EufgzzpLfaK-52">
          <mxGeometry relative="1" as="geometry" />
        </mxCell>
        <mxCell id="37M0eXva6EufgzzpLfaK-51" value="创建流程实例" style="rounded=0;whiteSpace=wrap;html=1;" vertex="1" parent="1">
          <mxGeometry x="520" y="600" width="120" height="60" as="geometry" />
        </mxCell>
        <mxCell id="37M0eXva6EufgzzpLfaK-53" style="edgeStyle=orthogonalEdgeStyle;rounded=0;orthogonalLoop=1;jettySize=auto;html=1;exitX=0;exitY=0.5;exitDx=0;exitDy=0;" edge="1" parent="1" source="37M0eXva6EufgzzpLfaK-52" target="37M0eXva6EufgzzpLfaK-4">
          <mxGeometry relative="1" as="geometry" />
        </mxCell>
        <mxCell id="37M0eXva6EufgzzpLfaK-61" style="edgeStyle=orthogonalEdgeStyle;rounded=0;orthogonalLoop=1;jettySize=auto;html=1;exitX=0.5;exitY=1;exitDx=0;exitDy=0;shape=flexArrow;" edge="1" parent="1" source="37M0eXva6EufgzzpLfaK-52" target="37M0eXva6EufgzzpLfaK-59">
          <mxGeometry relative="1" as="geometry" />
        </mxCell>
        <mxCell id="37M0eXva6EufgzzpLfaK-52" value="流程实例流转" style="rounded=0;whiteSpace=wrap;html=1;" vertex="1" parent="1">
          <mxGeometry x="520" y="720" width="120" height="60" as="geometry" />
        </mxCell>
        <mxCell id="37M0eXva6EufgzzpLfaK-62" style="edgeStyle=orthogonalEdgeStyle;rounded=0;orthogonalLoop=1;jettySize=auto;html=1;exitX=0;exitY=0.5;exitDx=0;exitDy=0;entryX=1;entryY=0.5;entryDx=0;entryDy=0;shape=flexArrow;" edge="1" parent="1" source="37M0eXva6EufgzzpLfaK-59" target="37M0eXva6EufgzzpLfaK-60">
          <mxGeometry relative="1" as="geometry" />
        </mxCell>
        <mxCell id="37M0eXva6EufgzzpLfaK-59" value="流程实例结束" style="rounded=0;whiteSpace=wrap;html=1;" vertex="1" parent="1">
          <mxGeometry x="520" y="840" width="120" height="60" as="geometry" />
        </mxCell>
        <mxCell id="37M0eXva6EufgzzpLfaK-60" value="处理流程实例&lt;br&gt;执行结果" style="rounded=0;whiteSpace=wrap;html=1;" vertex="1" parent="1">
          <mxGeometry x="240" y="840" width="120" height="60" as="geometry" />
        </mxCell>
      </root>
    </mxGraphModel>
  </diagram>
</mxfile>
